<?xml version="1.0" standalone="no"?>
<!DOCTYPE svg PUBLIC "-//W3C//DTD SVG 20010904//EN"
 "http://www.w3.org/TR/2001/REC-SVG-20010904/DTD/svg10.dtd">
<svg version="1.0" xmlns="http://www.w3.org/2000/svg"
 width="1024.000000pt" height="1024.000000pt" viewBox="0 0 1024.000000 1024.000000"
 preserveAspectRatio="xMidYMid meet">

<g transform="translate(0.000000,1024.000000) scale(0.100000,-0.100000)"
fill="#000000" stroke="none">
<path d="M4861 7770 l-50 -101 -68 86 c-64 80 -70 85 -106 85 l-38 0 6 -47 c3
-27 12 -108 20 -182 8 -73 16 -135 17 -136 2 -2 18 0 36 2 32 5 33 8 28 37 -9
53 -19 196 -13 196 3 0 31 -34 62 -75 32 -41 61 -75 65 -75 4 0 26 38 51 85
24 47 46 85 50 85 4 0 10 -46 14 -103 4 -57 10 -109 15 -116 5 -9 18 -11 39
-6 29 6 31 9 26 43 -6 44 -35 304 -35 315 0 4 -15 7 -34 7 -34 0 -36 -2 -85
-100z"/>
<path d="M5125 7857 c-5 -17 -25 -341 -21 -345 9 -8 193 -22 223 -16 77 15
111 107 58 160 -24 24 -24 25 -5 44 13 13 20 33 20 59 0 50 -41 87 -103 95
-120 15 -168 15 -172 3z m175 -70 c51 -26 32 -77 -29 -77 -69 0 -81 8 -81 51
l0 39 43 0 c23 0 53 -6 67 -13z m10 -150 c14 -7 26 -20 28 -30 6 -32 -17 -47
-73 -47 -76 0 -85 5 -85 51 l0 39 53 0 c28 0 63 -6 77 -13z"/>
<path d="M5536 7813 c-19 -64 -73 -329 -68 -334 8 -7 254 -61 257 -57 2 2 6
17 9 33 l7 30 -78 18 c-43 9 -86 17 -97 17 -16 0 -18 5 -12 42 4 23 8 44 10
45 2 2 35 -3 75 -12 96 -20 98 -20 103 15 5 34 6 33 -90 50 l-74 13 7 36 c4
20 9 38 11 40 2 3 46 -5 98 -16 l94 -20 6 30 c3 17 4 32 2 35 -4 4 -230 51
-248 52 -4 0 -9 -8 -12 -17z"/>
<path d="M4299 7763 c-12 -3 -21 -45 -43 -199 -15 -108 -26 -197 -24 -199 2
-3 17 -1 33 3 23 7 31 16 39 51 l11 43 80 24 80 23 26 -31 c22 -27 29 -30 60
-23 50 11 50 12 17 47 -17 18 -76 86 -130 151 -95 112 -108 122 -149 110z
m130 -197 c-2 -2 -28 -10 -58 -19 l-53 -15 6 46 c16 112 12 109 63 46 25 -30
44 -57 42 -58z"/>
<path d="M5856 7582 c-32 -86 -60 -162 -63 -168 -3 -10 37 -34 56 -34 5 0 17
23 27 50 19 52 26 56 66 41 19 -7 27 -24 42 -79 15 -57 22 -71 41 -76 13 -3
30 -8 38 -12 13 -4 12 6 -3 70 -15 64 -15 76 -3 76 30 0 71 31 88 66 30 64 8
127 -57 160 -25 13 -161 64 -169 64 -2 0 -30 -71 -63 -158z m189 42 c39 -18
51 -44 35 -73 -19 -37 -43 -42 -101 -22 -30 10 -53 21 -53 25 1 4 8 27 15 52
13 43 16 45 42 40 16 -3 44 -13 62 -22z"/>
<path d="M4008 7655 l-27 -15 29 -65 29 -64 -56 -26 c-97 -44 -96 -44 -127 24
-15 34 -28 61 -30 61 -2 0 -17 -5 -34 -11 l-30 -10 28 -67 c42 -100 119 -262
124 -262 13 0 56 24 56 31 0 5 -11 34 -25 65 -14 32 -22 61 -18 65 5 4 38 21
75 38 l66 29 28 -64 c26 -61 29 -65 53 -59 14 4 30 10 35 15 6 6 -16 62 -54
142 -34 73 -67 145 -72 161 -11 31 -13 31 -50 12z"/>
<path d="M6451 7460 c-97 -23 -159 -129 -132 -228 16 -62 47 -99 108 -128 42
-21 61 -25 90 -19 51 9 53 11 42 43 -8 25 -13 27 -52 24 -35 -3 -49 1 -75 22
-63 54 -63 138 -1 191 60 50 165 21 183 -51 6 -23 10 -25 39 -19 18 4 34 9 36
11 3 3 -5 24 -17 48 -24 51 -71 90 -127 105 -45 12 -46 12 -94 1z"/>
<path d="M3582 7439 c-68 -20 -132 -112 -132 -189 1 -38 34 -103 68 -132 93
-78 239 -52 292 52 31 60 27 80 -15 80 -29 0 -35 -4 -35 -21 0 -30 -51 -76
-94 -84 -121 -23 -190 130 -95 209 22 19 42 26 74 26 38 0 44 3 49 25 4 14 4
30 1 35 -8 12 -69 11 -113 -1z"/>
<path d="M6733 7221 c-106 -49 -135 -198 -55 -293 89 -105 254 -81 313 47 73
158 -96 319 -258 246z m147 -66 c83 -43 73 -174 -15 -211 -53 -22 -82 -17
-123 20 -34 31 -37 39 -37 86 0 47 3 55 37 86 43 38 88 45 138 19z"/>
<path d="M3041 7026 l-23 -24 67 -178 c37 -99 70 -182 74 -187 4 -4 18 4 30
17 23 25 23 26 7 67 -19 48 -18 50 67 122 l48 40 36 -17 c36 -17 36 -17 65 11
l28 27 -172 68 c-95 38 -180 70 -189 73 -8 3 -25 -6 -38 -19z m147 -92 c28
-10 51 -21 50 -24 -2 -4 -22 -23 -44 -43 l-41 -37 -22 59 c-24 68 -25 75 -8
68 6 -2 36 -13 65 -23z"/>
<path d="M7035 6866 c-71 -58 -131 -109 -133 -116 -4 -11 25 -50 37 -50 4 0
44 31 91 70 46 38 85 68 87 67 1 -2 -11 -45 -28 -96 -17 -51 -29 -95 -25 -98
3 -3 39 0 81 6 138 20 138 20 36 -65 l-91 -76 22 -27 c19 -23 26 -26 39 -17
25 17 254 217 256 225 2 3 -7 18 -20 33 l-22 26 -80 -13 c-44 -8 -92 -14 -107
-14 l-27 -1 34 100 33 99 -20 26 c-10 14 -22 25 -26 25 -4 0 -65 -47 -137
-104z"/>
<path d="M2863 6836 c-18 -23 -59 -74 -92 -113 l-59 -71 25 -23 25 -24 37 44
38 44 99 -78 c54 -43 107 -85 116 -93 15 -13 20 -11 41 14 l24 28 -37 30 c-20
17 -74 60 -118 95 l-82 63 36 44 36 44 -23 20 c-13 10 -26 19 -29 19 -3 0 -20
-19 -37 -43z"/>
<path d="M2639 6523 c-74 -67 -89 -140 -40 -195 39 -43 93 -45 142 -5 101 81
100 81 117 70 40 -25 22 -77 -42 -120 -23 -15 -42 -28 -44 -29 -1 0 3 -14 9
-31 13 -39 33 -35 94 19 56 49 75 84 75 138 0 76 -76 123 -143 89 -12 -6 -45
-29 -74 -51 -59 -45 -86 -46 -91 -5 -3 20 5 36 30 61 18 18 40 35 48 38 13 4
13 8 1 31 -19 36 -33 34 -82 -10z"/>
<path d="M7342 6468 c-146 -78 -153 -83 -147 -107 4 -14 10 -30 14 -34 5 -5
51 15 103 42 52 28 98 51 101 51 3 0 -16 -37 -43 -82 -27 -45 -47 -85 -44 -90
3 -4 26 -8 52 -9 26 0 70 -4 97 -7 l50 -7 -90 -52 c-49 -29 -96 -56 -104 -61
-13 -7 -11 -13 7 -39 l22 -30 159 94 159 95 -16 27 c-15 27 -20 29 -121 35
-58 4 -107 9 -109 11 -2 2 21 45 51 95 55 91 55 92 38 121 -9 16 -18 29 -21
28 -3 0 -74 -37 -158 -81z"/>
<path d="M4628 6500 c-71 -38 -106 -113 -89 -191 5 -23 14 -46 20 -52 6 -6 11
-16 11 -23 0 -11 -362 -790 -535 -1151 -75 -156 -79 -163 -108 -163 -16 0 -46
-9 -66 -21 -82 -46 -112 -146 -69 -230 l24 -46 -199 -414 c-109 -228 -219
-455 -243 -505 -38 -80 -48 -92 -74 -97 -16 -4 -46 -21 -66 -40 -31 -28 -37
-41 -42 -85 -2 -30 1 -64 8 -82 37 -88 164 -119 232 -56 14 14 28 31 30 38 4
10 54 13 221 13 l216 1 13 -25 c21 -40 95 -81 145 -81 55 0 114 30 145 72 32
46 33 158 2 203 l-22 30 87 185 87 185 41 5 c44 6 91 32 100 56 4 12 84 14
545 14 l540 0 20 -25 c30 -38 75 -58 119 -52 l37 5 48 -107 c26 -58 68 -149
93 -201 l47 -95 -18 -35 c-66 -128 64 -270 194 -212 25 11 55 34 67 51 l22 31
209 0 208 0 20 -34 c23 -38 92 -76 141 -76 40 0 103 32 129 65 86 109 29 254
-109 280 l-35 7 -244 495 c-134 273 -243 501 -242 507 1 6 4 23 8 38 16 67
-31 149 -94 163 -26 5 -46 42 -240 437 -198 402 -211 433 -198 453 58 88 -9
224 -109 225 -29 0 -33 6 -102 153 -67 144 -70 153 -57 179 18 35 18 91 0 126
-27 52 -62 75 -119 80 -63 5 -105 -13 -137 -59 l-22 -30 -172 2 -171 3 -34 39
c-59 67 -140 85 -213 47z m134 -71 c26 -14 48 -67 41 -101 -8 -42 -48 -73 -94
-72 -46 2 -67 17 -86 62 -11 27 -11 37 1 66 8 19 22 39 33 45 24 14 79 14 105
0z m467 -148 c21 -14 -20 -107 -46 -103 -10 1 -34 5 -55 8 -23 4 -47 1 -67 -9
-30 -15 -31 -15 -105 41 -41 32 -75 60 -76 64 0 10 333 9 349 -1z m203 -213
c37 -73 66 -134 64 -135 -2 -3 -207 85 -213 91 -5 5 69 176 76 176 3 0 36 -60
73 -132z m-517 70 c52 -40 55 -45 50 -76 -11 -61 43 -143 109 -165 5 -2 -3
-25 -17 -52 l-25 -50 -46 98 c-25 53 -66 140 -91 192 -24 52 -42 95 -40 95 3
0 30 -19 60 -42z m260 -33 c31 -30 33 -82 4 -119 -16 -21 -29 -26 -64 -26 -35
0 -48 5 -64 26 -47 60 -10 144 64 144 25 0 44 -8 60 -25z m-327 -210 l88 -190
-19 -45 c-17 -38 -18 -50 -8 -90 11 -44 10 -48 -53 -190 -35 -80 -100 -224
-145 -320 -79 -172 -81 -175 -117 -184 -21 -5 -52 -24 -74 -47 l-38 -39 -176
0 c-97 0 -176 3 -175 8 0 4 91 77 202 162 l201 154 59 -2 c56 -3 60 -2 98 36
35 36 39 44 39 92 0 47 -4 56 -34 85 l-34 32 14 124 c45 400 73 614 79 607 2
-2 44 -89 93 -193z m-229 -145 c-21 -168 -38 -321 -39 -342 0 -30 -5 -39 -34
-56 -47 -28 -68 -64 -70 -119 l-1 -47 -183 -144 c-101 -79 -185 -142 -186
-141 -2 2 55 126 126 274 71 149 165 347 208 440 130 283 210 448 214 444 2
-2 -14 -141 -35 -309z m757 135 c66 -31 113 -59 109 -65 -6 -9 -309 -110 -333
-110 -7 0 -12 4 -12 9 0 17 103 221 111 221 5 0 61 -25 125 -55z m293 14 c32
-11 61 -52 61 -88 0 -11 -12 -33 -26 -50 -20 -24 -34 -31 -61 -31 -45 0 -93
45 -93 88 0 35 32 79 63 85 12 2 22 5 23 6 1 0 15 -4 33 -10z m-131 -186 l21
-18 -26 -161 c-27 -160 -27 -161 -56 -172 -17 -6 -35 -8 -42 -4 -6 4 -68 54
-137 111 -167 140 -168 136 47 207 88 28 163 52 166 53 4 1 16 -7 27 -16z
m130 -131 c12 -27 89 -187 171 -356 121 -248 145 -303 123 -286 -15 11 -85 69
-157 129 -116 97 -130 111 -128 137 4 45 -15 90 -52 123 l-34 30 22 135 c12
75 25 136 28 136 4 0 16 -22 27 -48z m-588 -194 c19 -40 76 -163 128 -273 52
-110 106 -225 120 -255 15 -30 28 -58 30 -63 2 -4 -133 -6 -299 -5 -287 3
-304 4 -307 22 -4 19 276 646 288 646 4 0 22 -33 40 -72z m220 -34 c89 -75 90
-76 84 -113 -12 -76 63 -161 141 -161 25 0 40 -27 246 -447 120 -247 227 -464
237 -483 17 -35 17 -37 0 -65 -10 -18 -18 -50 -18 -77 0 -41 5 -52 35 -82 l35
-35 -9 -106 c-4 -58 -10 -107 -12 -109 -2 -2 -44 80 -93 183 -71 148 -89 194
-88 226 3 58 -15 100 -56 137 -27 24 -59 77 -116 195 -79 161 -79 162 -66 202
7 23 10 54 6 75 -10 50 -59 104 -103 112 -31 6 -38 13 -61 63 -35 77 -242 522
-253 544 -6 9 -7 17 -4 17 3 0 46 -34 95 -76z m275 -50 c19 -8 45 -55 45 -84
0 -33 -53 -80 -90 -80 -37 0 -90 47 -90 80 0 26 18 61 39 77 17 13 69 17 96 7z
m134 -271 c25 -21 109 -91 186 -157 139 -117 140 -119 137 -156 -4 -41 8 -71
41 -107 22 -24 23 -64 8 -293 l-7 -105 -116 235 c-216 440 -303 620 -299 620
2 0 25 -17 50 -37z m-1698 -219 c33 -36 33 -95 -2 -130 -73 -73 -196 18 -147
109 18 34 40 46 84 47 31 0 46 -6 65 -26z m674 -16 c15 -14 28 -38 32 -60 5
-32 1 -41 -25 -68 -61 -60 -152 -25 -152 59 1 79 86 119 145 69z m863 -73 c51
-59 12 -145 -67 -145 -84 0 -119 102 -55 159 35 30 89 24 122 -14z m-1051 -74
c10 -17 1 -45 -62 -188 -40 -92 -76 -168 -79 -168 -6 0 -178 249 -226 328
l-30 47 193 0 c179 0 193 -1 204 -19z m830 4 c2 -6 -61 -42 -140 -82 -139 -69
-144 -70 -171 -56 -19 10 -43 13 -71 10 -40 -6 -43 -5 -108 61 -37 37 -67 71
-67 75 0 12 553 4 557 -8z m-550 -133 c59 -57 62 -62 56 -96 -5 -33 -12 -40
-62 -65 -99 -50 -284 -132 -292 -129 -7 3 132 322 146 336 13 13 70 28 80 21
6 -5 38 -35 72 -67z m-527 -301 c8 -17 8 -26 -5 -43 -17 -25 -20 -84 -6 -120
7 -20 -4 -53 -63 -179 -39 -85 -77 -165 -82 -179 -10 -21 -12 -12 -19 63 -6
73 -4 91 9 106 63 69 47 165 -36 216 -14 9 -18 43 -23 245 l-7 235 110 -162
c61 -88 115 -171 122 -182z m1149 320 c15 -11 44 -21 64 -23 l37 -3 65 -139
c45 -97 62 -143 55 -151 -8 -9 -73 12 -262 84 -138 53 -253 101 -255 108 -4
10 235 141 260 142 5 1 21 -8 36 -18z m1209 -877 c-2 -1 -55 43 -118 97 -63
55 -145 123 -182 152 -65 50 -67 53 -68 97 0 52 -28 105 -61 115 -24 8 -24 15
-2 319 l6 89 214 -433 c117 -238 212 -434 211 -436z m-2675 704 c12 -247 10
-286 -13 -298 -28 -15 -50 -62 -50 -107 0 -32 -7 -43 -38 -69 -74 -61 -332
-255 -332 -249 0 3 31 67 68 143 38 75 131 269 207 430 76 160 141 292 145
292 4 0 10 -64 13 -142z m1331 -115 l180 -68 -212 -3 c-116 -1 -306 -1 -421 0
l-209 3 132 61 132 60 29 -19 c38 -23 106 -18 144 11 14 12 30 21 35 21 5 1
90 -29 190 -66z m1134 -532 c115 -98 212 -183 215 -188 3 -4 -89 -10 -204 -12
-161 -2 -209 0 -209 9 0 7 -17 28 -37 47 -34 33 -37 39 -34 87 7 164 23 235
53 236 4 0 101 -81 216 -179z m-2438 119 c10 -6 19 -41 27 -107 11 -96 11 -98
-10 -113 -28 -20 -49 -40 -67 -68 -15 -22 -17 -23 -204 -20 l-189 3 204 157
c112 86 209 157 214 157 6 1 17 -4 25 -9z m155 -296 c36 -24 49 -74 31 -118
-26 -62 -99 -75 -147 -27 -82 82 19 209 116 145z m2734 -10 c26 -21 31 -33 31
-67 -1 -45 -13 -67 -47 -85 -51 -27 -115 -2 -133 53 -31 93 74 162 149 99z
m-722 -8 c61 -53 21 -156 -62 -156 -52 0 -90 37 -90 88 0 83 88 123 152 68z"/>
<path d="M2470 6241 c-5 -11 -10 -26 -10 -34 0 -12 317 -174 324 -166 14 16
26 51 21 60 -5 8 -310 159 -321 159 -2 0 -8 -9 -14 -19z"/>
<path d="M7565 6031 c-82 -31 -157 -59 -166 -63 -15 -6 -12 -21 28 -130 24
-67 46 -125 48 -127 3 -2 17 2 33 8 l29 12 -33 92 c-19 51 -34 93 -34 94 0 5
80 26 84 22 2 -2 15 -35 29 -74 25 -72 40 -85 70 -63 17 13 17 17 -8 82 -14
38 -24 75 -21 81 2 7 18 17 34 23 l30 10 33 -89 c18 -49 37 -89 41 -89 4 0 18
5 31 11 l24 11 -46 124 c-25 68 -48 123 -51 123 -3 -1 -72 -27 -155 -58z"/>
<path d="M2683 5972 c-8 -19 -23 -55 -33 -81 -10 -25 -24 -45 -32 -44 -7 0
-67 22 -133 47 -65 25 -122 46 -126 46 -7 0 -32 -61 -27 -66 10 -9 332 -124
336 -119 11 11 92 227 87 235 -3 4 -16 10 -31 13 -22 4 -28 0 -41 -31z"/>
<path d="M2286 5751 c-8 -14 -17 -71 -11 -71 25 0 215 -45 237 -56 30 -16 48
-42 48 -73 0 -26 -44 -77 -73 -85 -13 -3 -75 5 -137 19 -63 13 -115 23 -116
22 -1 -1 -4 -18 -8 -37 l-6 -35 108 -23 c164 -35 210 -28 265 38 68 80 31 218
-66 249 -64 21 -237 59 -241 52z"/>
<path d="M7740 5704 c-52 -12 -130 -30 -173 -39 l-78 -17 7 -32 c9 -45 10 -45
61 -30 62 19 61 19 69 -22 6 -33 3 -39 -45 -88 -49 -50 -52 -55 -46 -90 4 -20
10 -36 13 -36 4 0 30 23 58 51 l52 52 28 -22 c62 -49 175 -5 190 74 5 31 -22
204 -35 216 -3 3 -49 -4 -101 -17z m61 -95 c22 -77 -2 -134 -53 -127 -24 3
-51 47 -63 104 -6 31 -5 32 42 42 61 12 66 11 74 -19z"/>
<path d="M2400 5282 c-96 -36 -175 -66 -176 -67 -1 0 -4 -17 -7 -37 l-6 -37
184 -96 c100 -52 186 -95 189 -95 4 0 6 17 4 38 -3 33 -8 39 -47 57 l-43 20 6
50 c3 28 6 67 6 88 0 36 3 40 40 54 37 15 40 19 40 55 0 21 -3 38 -7 37 -5 0
-87 -30 -183 -67z m42 -126 l-4 -55 -64 32 c-35 17 -64 34 -64 38 0 6 93 36
120 38 12 1 14 -10 12 -53z"/>
<path d="M7678 5321 c-106 -35 -157 -160 -109 -268 16 -35 45 -63 65 -63 3 0
13 11 21 24 15 23 15 25 -9 50 -49 49 -27 149 40 181 41 19 68 19 110 -1 60
-29 78 -90 48 -162 -14 -35 -14 -38 7 -54 11 -10 25 -18 29 -18 14 0 50 98 50
136 0 54 -36 121 -80 150 -42 28 -126 40 -172 25z"/>
<path d="M2300 4949 c-40 -16 -69 -49 -76 -85 -6 -34 14 -214 25 -214 3 0 88
9 189 22 175 21 183 23 178 42 -3 12 -6 28 -6 37 0 13 -8 15 -57 8 -32 -4 -59
-6 -61 -5 -1 2 -7 28 -11 57 -12 69 -28 105 -57 124 -30 20 -93 27 -124 14z
m84 -82 c16 -12 35 -70 36 -108 0 -22 -109 -37 -122 -17 -12 20 -9 113 4 126
16 16 60 15 82 -1z"/>
<path d="M7550 4883 c0 -27 -3 -91 -6 -141 l-7 -92 31 0 c33 0 34 0 48 138 l6
62 40 0 41 0 -7 -90 -8 -90 31 0 c34 0 35 3 46 105 4 33 9 63 10 66 2 3 20 3
40 1 l35 -4 -6 -94 -7 -94 30 0 30 0 7 73 c4 39 9 97 12 128 l6 56 -118 7
c-66 4 -149 9 -186 13 l-68 6 0 -50z"/>
</g>
</svg>
